<?xml version="1.0" encoding="UTF-8"?>
<!-- (c) Carrd Inc. All rights reserved. All logos and trademarks are property of their respective owners. -->
<svg xmlns="http://www.w3.org/2000/svg" version="1.1" xmlns:xlink="http://www.w3.org/1999/xlink" viewBox="0 0 40 40" display="none" width="0" height="0">
	<symbol id="lock" viewBox="0 0 40 40"><path d="M31.5,37.5H8.5c-1.7,0-3-1.4-3-3V20.4c0-1.7,1.7-3,3.4-3v-4.8c0-6.1,4.3-11.1,10.4-11.1h1.6 c6.1,0,10.4,5,10.4,11.1v4.8c1.6,0.1,3.3,1.4,3.3,3v14.1C34.6,36.1,33.2,37.5,31.5,37.5z M28.1,12.7c0-4.5-3.1-8.3-7.8-8.3h-0.4 c-4.7,0-7.8,3.8-7.8,8.3l0,4.6h16L28.1,12.7z"/></symbol>
	<symbol id="document" viewBox="0 0 40 40"><path d="M24.5,13.6V5.8c0.2,0.2,0.4,0.3,0.6,0.5l6.8,6.8c0.2,0.2,0.3,0.4,0.5,0.6L24.5,13.6L24.5,13.6z M22.3,14.2 c0,0.4,0.2,0.8,0.5,1.1c0.3,0.3,0.7,0.5,1.1,0.5h9v17.5c0,0.4-0.2,0.8-0.5,1.1c-0.3,0.3-0.7,0.5-1.1,0.5H9.1c-0.4,0-0.8-0.2-1.1-0.5 c-0.3-0.3-0.5-0.7-0.5-1.1V6.7c0-0.4,0.2-0.8,0.5-1.1c0.3-0.3,0.7-0.5,1.1-0.5h13.3L22.3,14.2L22.3,14.2z"/></symbol>
	<symbol id="cart" viewBox="0 0 40 40"><path d="M13,32.1c-0.5-0.5-1.1-0.7-1.9-0.7s-1.4,0.2-1.9,0.7c-0.5,0.5-0.7,1.1-0.7,1.9c0,0.7,0.2,1.4,0.7,1.9 c0.5,0.5,1.1,0.7,1.9,0.7s1.4-0.2,1.9-0.7c0.5-0.5,0.7-1.1,0.7-1.9S13.5,32.6,13,32.1z M31.2,32.1c-0.5-0.5-1-0.7-1.8-0.7 s-1.4,0.2-1.9,0.7c-0.5,0.5-0.7,1.1-0.7,1.9c0,0.7,0.2,1.4,0.7,1.9s1.1,0.7,1.9,0.7s1.4-0.2,1.9-0.7c0.5-0.5,0.7-1.1,0.7-1.9 S31.7,32.6,31.2,32.1z M34.2,9.8c-0.2-0.2-0.5-0.4-0.9-0.4H8.9c0-0.1,0-0.3-0.1-0.5c0-0.3-0.1-0.5-0.1-0.6c0-0.1-0.1-0.3-0.2-0.5 c0-0.2-0.1-0.4-0.2-0.5C8.1,7.1,8,7,7.8,6.9C7.6,6.8,7.4,6.8,7.2,6.8H2c-0.3,0-0.6,0.1-0.9,0.4C0.7,7.6,0.7,7.8,0.7,8.1 c0,0.3,0.1,0.6,0.4,0.9s0.5,0.4,0.9,0.4h4.2l3.5,17.8c0,0.1-0.1,0.3-0.3,0.6c-0.2,0.3-0.3,0.6-0.4,0.8c-0.1,0.2-0.2,0.4-0.3,0.7 c-0.1,0.3-0.2,0.5-0.2,0.6c0,0.3,0.1,0.6,0.4,0.9c0.2,0.2,0.5,0.4,0.9,0.4h20.9c0.3,0,0.6-0.1,0.9-0.4c0.2-0.2,0.4-0.5,0.4-0.9 c0-0.4-0.1-0.6-0.4-0.9c-0.2-0.2-0.5-0.4-0.9-0.4H12.1c0.3-0.6,0.5-1,0.5-1.4c0-0.1-0.1-0.6-0.3-1.5l21.3-2.5c0.3,0,0.6-0.2,0.8-0.4 c0.2-0.2,0.3-0.5,0.3-0.8V10.7C34.7,10.4,34.5,10.1,34.2,9.8z" /></symbol>
	<symbol id="email" viewBox="0 0 40 40"><path d="M37.5,12.6l-17.5,11.9L2.5,12.6c-.2-.1-.3-.2-.5-.2v-2.7c0-.8.6-1.4,1.4-1.4h33.1c.8,0,1.4.6,1.4,1.4v2.7c-.2,0-.4,0-.5.2ZM19.5,26.3c.2.1.3.2.5.2s.4,0,.5-.2l17.5-11.9v16.9c0,.8-.6,1.4-1.4,1.4H3.4c-.8,0-1.4-.6-1.4-1.4V14.4l17.5,11.9Z" /></symbol>
	<symbol id="twitter" viewBox="0 0 40 40"><path d="M36.3,10.2c-1,1.3-2.1,2.5-3.4,3.5c0,0.2,0,0.4,0,1c0,1.7-0.2,3.6-0.9,5.3c-0.6,1.7-1.2,3.5-2.4,5.1 c-1.1,1.5-2.3,3.1-3.7,4.3c-1.4,1.2-3.3,2.3-5.3,3c-2.1,0.8-4.2,1.2-6.6,1.2c-3.6,0-7-1-10.2-3c0.4,0,1.1,0.1,1.5,0.1 c3.1,0,5.9-1,8.2-2.9c-1.4,0-2.7-0.4-3.8-1.3c-1.2-1-1.9-2-2.2-3.3c0.4,0.1,1,0.1,1.2,0.1c0.6,0,1.2-0.1,1.7-0.2 c-1.4-0.3-2.7-1.1-3.7-2.3s-1.4-2.6-1.4-4.2v-0.1c1,0.6,2,0.9,3,0.9c-1-0.6-1.5-1.3-2.2-2.4c-0.6-1-0.9-2.1-0.9-3.3s0.3-2.3,1-3.4 c1.5,2.1,3.6,3.6,6,4.9s4.9,2,7.6,2.1c-0.1-0.6-0.1-1.1-0.1-1.4c0-1.8,0.8-3.5,2-4.7c1.2-1.2,2.9-2,4.7-2c2,0,3.6,0.8,4.8,2.1 c1.4-0.3,2.9-0.9,4.2-1.5c-0.4,1.5-1.4,2.7-2.9,3.6C33.8,11.2,35.1,10.9,36.3,10.2L36.3,10.2z"/></symbol>
	<symbol id="telegram" viewBox="0 0 40 40"><path d="M2.3,18.6c9.1-4,15.2-6.6,18.2-7.9c8.7-3.6,10.5-4.2,11.7-4.3 c0.3,0,0.8,0.1,1.2,0.4c0.3,0.3,0.4,0.6,0.4,0.9C34,7.9,34,8.4,34,8.9c-0.5,5-2.5,17-3.5,22.5c-0.4,2.3-1.3,3.1-2.1,3.2 c-1.8,0.2-3.2-1.2-5-2.3c-2.8-1.8-4.3-2.9-7-4.7c-3.1-2-1.1-3.2,0.7-5c0.5-0.5,8.5-7.8,8.6-8.4c0-0.1,0-0.4-0.2-0.5 c-0.2-0.2-0.4-0.1-0.7-0.1c-0.3,0.1-4.7,3-13.2,8.7c-1.3,0.9-2.4,1.3-3.4,1.3c-1.1,0-3.3-0.6-4.9-1.1c-2-0.6-3.5-1-3.4-2.1 C0.1,19.7,0.9,19.2,2.3,18.6z"/></symbol>
	<symbol id="instagram" viewBox="0 0 40 40"><path d="M20,7c4.2,0,4.7,0,6.3,0.1c1.5,0.1,2.3,0.3,3,0.5C30,8,30.5,8.3,31.1,8.9c0.5,0.5,0.9,1.1,1.2,1.8c0.2,0.5,0.5,1.4,0.5,3 C33,15.3,33,15.8,33,20s0,4.7-0.1,6.3c-0.1,1.5-0.3,2.3-0.5,3c-0.3,0.7-0.6,1.2-1.2,1.8c-0.5,0.5-1.1,0.9-1.8,1.2 c-0.5,0.2-1.4,0.5-3,0.5C24.7,33,24.2,33,20,33s-4.7,0-6.3-0.1c-1.5-0.1-2.3-0.3-3-0.5C10,32,9.5,31.7,8.9,31.1 C8.4,30.6,8,30,7.7,29.3c-0.2-0.5-0.5-1.4-0.5-3C7,24.7,7,24.2,7,20s0-4.7,0.1-6.3c0.1-1.5,0.3-2.3,0.5-3C8,10,8.3,9.5,8.9,8.9 C9.4,8.4,10,8,10.7,7.7c0.5-0.2,1.4-0.5,3-0.5C15.3,7.1,15.8,7,20,7z M20,4.3c-4.3,0-4.8,0-6.5,0.1c-1.6,0-2.8,0.3-3.8,0.7 C8.7,5.5,7.8,6,6.9,6.9C6,7.8,5.5,8.7,5.1,9.7c-0.4,1-0.6,2.1-0.7,3.8c-0.1,1.7-0.1,2.2-0.1,6.5s0,4.8,0.1,6.5 c0,1.6,0.3,2.8,0.7,3.8c0.4,1,0.9,1.9,1.8,2.8c0.9,0.9,1.7,1.4,2.8,1.8c1,0.4,2.1,0.6,3.8,0.7c1.6,0.1,2.2,0.1,6.5,0.1 s4.8,0,6.5-0.1c1.6-0.1,2.9-0.3,3.8-0.7c1-0.4,1.9-0.9,2.8-1.8c0.9-0.9,1.4-1.7,1.8-2.8c0.4-1,0.6-2.1,0.7-3.8 c0.1-1.6,0.1-2.2,0.1-6.5s0-4.8-0.1-6.5c-0.1-1.6-0.3-2.9-0.7-3.8c-0.4-1-0.9-1.9-1.8-2.8c-0.9-0.9-1.7-1.4-2.8-1.8 c-1-0.4-2.1-0.6-3.8-0.7C24.8,4.3,24.3,4.3,20,4.3L20,4.3L20,4.3z"/><path d="M20,11.9c-4.5,0-8.1,3.7-8.1,8.1s3.7,8.1,8.1,8.1s8.1-3.7,8.1-8.1S24.5,11.9,20,11.9z M20,25.2c-2.9,0-5.2-2.3-5.2-5.2 s2.3-5.2,5.2-5.2s5.2,2.3,5.2,5.2S22.9,25.2,20,25.2z"/><path d="M30.6,11.6c0,1-0.8,1.9-1.9,1.9c-1,0-1.9-0.8-1.9-1.9s0.8-1.9,1.9-1.9C29.8,9.7,30.6,10.5,30.6,11.6z"/></symbol>
	<symbol id="tiktok" viewBox="0 0 40 40"><path d="M36.1,11.7v5c-3.3,0-6.3-1-8.8-2.8v12.9c0,6.5-5.2,11.7-11.7,11.7c-2.4,0-4.6-0.7-6.5-2c0,0,0,0,0,0 c-3.1-2.1-5.2-5.7-5.2-9.7c0-6.5,5.2-11.7,11.7-11.7c0.5,0,1.1,0,1.6,0.1v1.4c0,0,0,0,0,0v5c-0.5-0.2-1.1-0.3-1.6-0.3 c-2.9,0-5.3,2.4-5.3,5.4c0,2.1,1.2,3.9,2.9,4.8c0.7,0.4,1.5,0.6,2.4,0.6c2.9,0,5.3-2.4,5.3-5.3V1.5h6.3v0.8c0,0.2,0.1,0.5,0.1,0.7 c0.4,2.5,1.9,4.7,4,6c0,0,0.1,0.1,0.1,0.1c0,0-0.1-0.1-0.1-0.1c1.4,0.9,3,1.3,4.7,1.3V11.7"/></symbol>
	<symbol id="arrow-down-alt" viewBox="0 0 40 40"><path d="M34.5,16.4l-13.8,13.4-.2.2c-.2.2-.3.2-.5.3,0,0,0,0,0,0,0,0,0,0,0,0,0,0,0,0,0,0,0,0,0,0,0,0-.2,0-.4-.1-.5-.3l-.2-.2-13.8-13.4c-.3-.3-.3-.9,0-1.2l2.5-2.6c.3-.3.9-.3,1.2,0l10.8,10.6,10.8-10.6c.3-.3.9-.3,1.2,0l2.5,2.6c.3.3.3.9,0,1.2Z" /></symbol>
	<symbol id="check" viewBox="0 0 40 40"><path d="M38.2,11.5l-20,20c0,0,0,.1-.1.2l-2.4,2.4s0,0-.2.1h-.1c-.1.2-.2.2-.4.2-.2,0-.3,0-.4-.1h-.1c0-.1-.1-.2-.2-.2l-2.4-2.4s0,0-.1-.2L1.8,21.5c-.2-.2-.1-.7.2-1.1l2.4-2.4c.4-.4.9-.5,1.1-.2l9.5,9.5L34.5,7.7c.2-.2.7-.1,1.1.2l2.4,2.4c.4.4.5.9.2,1.1Z" /></symbol>
	<symbol id="download" viewBox="0 0 40 40"><path d="M2.7,35.4v-2.2c0-.5.4-1,1-1h32.7c.5,0,1,.4,1,1v2.2c0,.5-.4,1-1,1H3.7c-.5,0-1-.4-1-1ZM16.9,26.3h0l-10-10.2c-.4-.4-.4-1,0-1.4l2.3-2.3c.4-.4,1-.4,1.4,0l6.8,6.8V3.8c0-.5.4-1,1-1h3.2c.5,0,1,.4,1,1v15.4l6.7-6.7c.4-.4,1-.4,1.4,0l2.3,2.3c.4.4.4,1,0,1.4l-10.1,10.1h0l-2.3,2.3c-.4.4-1,.4-1.4,0l-2.3-2.3h0Z" /></symbol>
	<symbol id="arrow-right-alt" viewBox="0 0 40 40"><path d="M17.1,5.5l13.4,13.8.2.2c.2.1.3.3.3.5h0c-.1.2-.1.3-.3.5l-.2.2-13.4,13.8c-.3.3-.9.3-1.2,0l-2.6-2.5c-.3-.3-.3-.9,0-1.2l10.6-10.8-10.6-10.8c-.3-.3-.3-.9,0-1.2l2.6-2.5c.3-.3.9-.3,1.2,0Z" /></symbol>
</svg>
